<?xml version="1.0" standalone="no"?>
<!DOCTYPE svg PUBLIC "-//W3C//DTD SVG 20010904//EN"
 "http://www.w3.org/TR/2001/REC-SVG-20010904/DTD/svg10.dtd">
<svg version="1.0" xmlns="http://www.w3.org/2000/svg"
 width="900.000000pt" height="900.000000pt" viewBox="0 0 900.000000 900.000000"
 preserveAspectRatio="xMidYMid meet">
<metadata>
Created by potrace 1.10, written by Peter Selinger 2001-2011
</metadata>
<g transform="translate(0.000000,900.000000) scale(0.100000,-0.100000)"
fill="#000000" stroke="none">
<path d="M0 4500 l0 -4500 4500 0 4500 0 0 4500 0 4500 -4500 0 -4500 0 0
-4500z m6365 3932 c197 -38 346 -80 555 -157 80 -29 282 -133 385 -197 238
-148 463 -349 622 -553 77 -99 163 -222 163 -234 0 -5 10 -22 23 -38 22 -27
102 -182 147 -288 55 -127 116 -324 135 -435 7 -47 22 -119 32 -160 17 -71 18
-170 18 -1760 0 -1590 -1 -1689 -18 -1760 -10 -41 -25 -113 -32 -160 -20 -117
-67 -268 -143 -455 -27 -67 -120 -244 -143 -274 -11 -13 -19 -27 -19 -32 0 -5
-14 -28 -30 -51 -17 -24 -42 -61 -57 -83 -49 -75 -202 -251 -295 -341 -217
-207 -519 -402 -783 -506 -147 -58 -399 -134 -475 -143 -30 -3 -91 -14 -135
-23 -73 -16 -225 -17 -1850 -17 -1625 0 -1777 1 -1850 17 -44 9 -105 20 -135
23 -72 9 -295 75 -467 139 -47 17 -246 114 -310 151 -300 171 -617 462 -799
734 -226 337 -347 654 -405 1061 -10 73 -10 3380 0 3445 37 228 42 248 106
455 50 157 127 324 230 495 28 47 110 169 128 191 103 126 151 181 216 248
130 134 378 324 532 407 81 43 260 130 299 144 256 95 388 129 675 175 28 4
840 7 1805 6 l1755 -1 120 -23z"/>
<path d="M3870 6710 c-106 -34 -137 -71 -185 -220 -20 -63 -43 -132 -51 -153
-8 -20 -14 -47 -14 -58 0 -12 -12 -54 -26 -93 -14 -39 -29 -91 -34 -116 -4
-25 -13 -58 -18 -75 -38 -107 -56 -168 -67 -225 -7 -36 -19 -81 -28 -100 -25
-58 -65 -192 -72 -245 -4 -27 -14 -66 -22 -85 -26 -61 -71 -204 -78 -245 -12
-67 -52 -188 -86 -258 -32 -64 -35 -67 -103 -96 l-71 -30 -290 -3 -290 -3 -46
-27 c-88 -52 -117 -145 -75 -240 21 -47 33 -60 82 -87 l57 -33 341 4 c380 5
377 4 516 81 82 46 208 170 238 234 13 26 34 69 47 94 14 26 25 60 25 76 0 16
23 94 50 173 28 79 50 156 50 170 0 14 11 57 24 95 42 124 56 172 56 187 0 9
16 62 35 119 19 57 35 113 35 124 0 39 57 185 71 185 5 0 13 -9 19 -21 16 -29
60 -179 60 -203 0 -12 9 -35 19 -53 11 -17 24 -56 30 -85 5 -30 16 -72 24 -94
9 -21 18 -58 21 -81 4 -24 15 -62 25 -85 19 -43 57 -170 85 -283 8 -33 29
-100 46 -150 17 -49 36 -116 41 -149 5 -32 21 -85 34 -117 14 -32 25 -73 25
-90 0 -18 8 -50 19 -73 18 -39 35 -98 68 -231 8 -33 23 -80 33 -105 11 -25 22
-61 25 -80 4 -19 15 -62 25 -95 11 -33 26 -85 33 -115 8 -30 20 -68 26 -85 16
-47 59 -194 75 -260 8 -33 30 -107 50 -165 20 -58 36 -114 36 -126 0 -11 14
-60 30 -107 17 -48 30 -98 30 -112 0 -14 9 -42 20 -62 11 -21 20 -45 20 -55 0
-9 11 -52 25 -95 14 -43 25 -91 25 -108 0 -16 7 -41 15 -55 8 -14 22 -40 30
-59 47 -98 128 -151 234 -151 63 0 132 29 182 76 30 28 72 137 123 314 19 69
42 145 50 170 7 25 18 68 24 95 11 54 30 114 68 213 13 34 24 77 24 95 1 17 8
50 16 72 36 95 84 250 84 269 0 18 21 88 62 211 6 17 17 55 24 85 30 118 67
228 97 290 31 63 34 66 97 89 62 24 79 25 370 30 l305 6 38 30 c51 40 74 80
82 142 6 47 4 58 -24 105 -20 35 -45 61 -73 78 -43 25 -45 25 -336 28 -363 5
-420 -2 -545 -63 -75 -36 -107 -59 -170 -123 -72 -73 -95 -101 -113 -142 -3
-8 -19 -43 -35 -77 -16 -34 -29 -76 -29 -93 0 -17 -7 -47 -16 -68 -29 -69 -67
-187 -80 -252 -7 -36 -33 -123 -58 -195 -25 -71 -46 -142 -46 -157 0 -15 -9
-51 -19 -80 -34 -93 -81 -250 -81 -270 0 -22 -27 -35 -42 -20 -6 6 -14 28 -18
49 -16 74 -56 218 -68 239 -6 12 -16 46 -21 75 -5 30 -21 86 -35 124 -14 39
-26 81 -26 94 0 28 -32 134 -61 201 -11 25 -26 77 -33 115 -17 83 -58 221 -74
252 -7 12 -18 50 -26 85 -28 127 -58 234 -72 255 -7 12 -20 50 -27 85 -29 128
-50 204 -68 243 -10 22 -21 58 -25 80 -3 22 -16 74 -29 115 -13 41 -38 129
-55 194 -18 66 -41 138 -51 160 -10 23 -19 52 -19 65 0 25 -53 205 -75 257 -8
18 -17 49 -20 70 -4 22 -18 71 -31 111 -13 39 -24 82 -24 95 0 13 -8 39 -19
58 -10 19 -21 53 -25 75 -4 22 -18 73 -32 114 -13 40 -24 84 -24 97 0 12 -11
44 -25 70 -14 26 -25 52 -25 58 0 16 -74 74 -122 96 -44 20 -123 25 -168 10z"/>
</g>
</svg>
